<?xml version="1.0" encoding="utf-8"?>
<!-- Generator: Adobe Illustrator 22.0.0, SVG Export Plug-In . SVG Version: 6.00 Build 0)  -->
<svg version="1.1" xmlns="http://www.w3.org/2000/svg" xmlns:xlink="http://www.w3.org/1999/xlink" x="0px" y="0px"
	 viewBox="0 0 455.7 530.3" style="enable-background:new 0 0 455.7 530.3;" xml:space="preserve">
<style type="text/css">
	.st0{opacity:0.5;}
	.st1{fill:#FF9800;}
	.st2{fill:#3F51B5;}
</style>
<g id="Layer_1">
	
		<image style="display:none;overflow:visible;" width="216" height="194" xlink:href="B1229817.jpg"  transform="matrix(1 0 0 1 -82.3333 -40.6667)">
	</image>
	<g class="st0">
		<path class="st1" d="M54.2,365.1l170.3,98.3l170.3-98.3V168.4L224.6,70.1L54.2,168.4V365.1z M224.6,465.7l-0.5-0.3L52.2,366.2
			v-199l0.5-0.3l171.8-99.2l172.3,99.5v199l-0.5,0.3L224.6,465.7z"/>
		<path class="st1" d="M87.7,345.8l136.9,79l136.9-79V187.7l-136.9-79l-136.9,79V345.8z M86.1,186.3l138.5-80l138.9,80.2
			c0,0,0,160.4-0.4,160.6l-138.5,80l-0.4-0.2l-138.5-80C85.7,346.9,85.7,186.6,86.1,186.3z"/>
		<path class="st1" d="M121.1,326.5l103.4,59.7L328,326.5V207l-103.4-59.7L121.1,207V326.5z M119.4,205.7L224.6,145L330,205.9
			c0,0,0,121.7-0.3,121.9l-105.1,60.7l-0.3-0.2l-105.1-60.7C119.1,327.6,119.1,205.9,119.4,205.7z"/>
		<path class="st1" d="M154.6,307.1l70,40.4l70-40.4v-80.8l-70-40.4l-70,40.4V307.1z M152.8,225.1l71.8-41.4l72,41.6
			c0,0,0,83.1-0.2,83.2l-71.8,41.4l-0.2-0.1l-71.8-41.4C152.6,308.3,152.6,225.2,152.8,225.1z"/>
		<path class="st1" d="M188.1,287.8l36.5,21.1l36.5-21.1v-42.2l-36.5-21.1l-36.5,21.1V287.8z M186.2,244.4l38.4-22.2l38.5,22.2
			c0,0,0,44.5-0.1,44.5l-38.4,22.2l-0.1-0.1L186.1,289C186.1,289,186.1,244.5,186.2,244.4z"/>
		<path class="st1" d="M221.5,268.5l3.1,1.8l3.1-1.8V265l-3.1-1.8l-3.1,1.8V268.5z M224.6,272.6l-5.1-2.9v-5.8l5.1-2.9l5.1,2.9v5.8
			L224.6,272.6z"/>
	</g>
	<g id="Layer_2">
		<rect x="222.5" y="68.9" class="st2" width="5" height="395.7"/>
		<rect x="27.1" y="264.2" transform="matrix(0.866 -0.5 0.5 0.866 -103.2296 148.2278)" class="st2" width="395.7" height="5"/>
		<rect x="222.5" y="68.9" transform="matrix(0.5 -0.866 0.866 0.5 -118.5148 328.2085)" class="st2" width="5" height="395.7"/>
	</g>
	<g class="st0">
		<polygon class="st2" points="120.4,206.4 225,186.4 261.7,245.5 393.2,363.9 225,347.5 120.4,327.1 		"/>
	</g>
	<path class="st1" d="M393.2,366.4c-0.1,0-0.2,0-0.2,0l-168.2-16.4c-0.1,0-0.2,0-0.2,0L120,329.6c-1.2-0.2-2-1.3-2-2.5V206.4
		c0-1.2,0.9-2.2,2-2.5l104.5-20c1-0.2,2,0.3,2.6,1.1l36.5,58.9L394.9,362c0.8,0.7,1.1,1.9,0.6,2.9
		C395.1,365.8,394.2,366.4,393.2,366.4z M225.3,345l160.5,15.7L260,247.4c-0.2-0.2-0.3-0.3-0.5-0.5l-35.8-57.7l-100.8,19.3V325
		L225.3,345z"/>
</g>
<g id="Layer_3">
	<g>
		<path class="st1" d="M9.8,130.4c0,1.1-0.4,2-1.1,2.6s-1.7,0.9-3,0.9h-1v3.8H2.5v-10.6h3.4c1.3,0,2.3,0.3,2.9,0.8
			C9.5,128.4,9.8,129.3,9.8,130.4z M4.8,132h0.7c0.7,0,1.2-0.1,1.5-0.4c0.3-0.3,0.5-0.7,0.5-1.2c0-0.5-0.1-0.9-0.4-1.2
			c-0.3-0.3-0.7-0.4-1.3-0.4h-1V132z"/>
		<path class="st1" d="M13.9,137.6h-2.2v-11.3h2.2V137.6z"/>
		<path class="st1" d="M21.3,137.6l-0.4-1.1h-0.1c-0.4,0.5-0.8,0.8-1.1,1c-0.4,0.2-0.9,0.3-1.5,0.3c-0.8,0-1.4-0.2-1.8-0.7
			c-0.4-0.4-0.7-1.1-0.7-1.9c0-0.9,0.3-1.5,0.9-1.9c0.6-0.4,1.5-0.6,2.7-0.7l1.4,0v-0.4c0-0.8-0.4-1.2-1.3-1.2
			c-0.6,0-1.4,0.2-2.3,0.6l-0.7-1.5c0.9-0.5,2-0.7,3.1-0.7c1.1,0,1.9,0.2,2.5,0.7c0.6,0.5,0.9,1.2,0.9,2.2v5.4H21.3z M20.7,133.9
			l-0.9,0c-0.6,0-1.1,0.1-1.4,0.3c-0.3,0.2-0.5,0.5-0.5,1c0,0.6,0.4,0.9,1.1,0.9c0.5,0,0.9-0.1,1.2-0.4c0.3-0.3,0.5-0.7,0.5-1.2
			V133.9z"/>
		<path class="st1" d="M28.4,137.8c-2.5,0-3.8-1.4-3.8-4.1c0-1.4,0.3-2.4,1-3.1s1.7-1.1,2.9-1.1c0.9,0,1.8,0.2,2.5,0.5l-0.7,1.7
			c-0.3-0.1-0.7-0.3-1-0.3s-0.6-0.1-0.9-0.1c-1.1,0-1.7,0.8-1.7,2.4c0,1.6,0.6,2.4,1.7,2.4c0.4,0,0.8-0.1,1.2-0.2
			c0.4-0.1,0.7-0.3,1.1-0.5v1.9c-0.4,0.2-0.7,0.4-1.1,0.5C29.4,137.7,28.9,137.8,28.4,137.8z"/>
		<path class="st1" d="M36.4,137.8c-1.3,0-2.3-0.4-3.1-1.1c-0.7-0.7-1.1-1.7-1.1-3.1c0-1.4,0.3-2.4,1-3.1c0.7-0.7,1.6-1.1,2.8-1.1
			c1.1,0,2,0.3,2.7,1c0.6,0.7,1,1.5,1,2.7v1.1h-5.2c0,0.6,0.2,1.1,0.6,1.5s0.8,0.5,1.5,0.5c0.5,0,0.9-0.1,1.4-0.2
			c0.4-0.1,0.9-0.3,1.4-0.5v1.7c-0.4,0.2-0.8,0.3-1.2,0.4C37.5,137.7,37,137.8,36.4,137.8z M36.1,131c-0.5,0-0.8,0.1-1.1,0.4
			s-0.4,0.7-0.5,1.3h3.1c0-0.5-0.2-1-0.4-1.3C36.9,131.1,36.5,131,36.1,131z"/>
		<path class="st1" d="M48.7,137.6h-2.2v-4.7c0-0.6-0.1-1-0.3-1.3c-0.2-0.3-0.5-0.4-0.9-0.4c-0.6,0-1,0.2-1.2,0.6s-0.4,1.1-0.4,2
			v3.8h-2.2v-8.1h1.7l0.3,1h0.1c0.2-0.4,0.5-0.7,0.9-0.9c0.4-0.2,0.9-0.3,1.4-0.3c1.2,0,2,0.4,2.5,1.2h0.2c0.2-0.4,0.5-0.7,1-0.9
			c0.4-0.2,0.9-0.3,1.4-0.3c0.9,0,1.6,0.2,2.1,0.7c0.5,0.5,0.7,1.2,0.7,2.3v5.3h-2.2v-4.7c0-0.6-0.1-1-0.3-1.3
			c-0.2-0.3-0.5-0.4-0.9-0.4c-0.5,0-0.9,0.2-1.2,0.6s-0.4,1-0.4,1.8V137.6z"/>
		<path class="st1" d="M59.7,137.8c-1.3,0-2.3-0.4-3.1-1.1c-0.7-0.7-1.1-1.7-1.1-3.1c0-1.4,0.3-2.4,1-3.1c0.7-0.7,1.6-1.1,2.8-1.1
			c1.1,0,2,0.3,2.7,1c0.6,0.7,1,1.5,1,2.7v1.1h-5.2c0,0.6,0.2,1.1,0.6,1.5s0.8,0.5,1.5,0.5c0.5,0,0.9-0.1,1.4-0.2
			c0.4-0.1,0.9-0.3,1.4-0.5v1.7c-0.4,0.2-0.8,0.3-1.2,0.4C60.8,137.7,60.3,137.8,59.7,137.8z M59.4,131c-0.5,0-0.8,0.1-1.1,0.4
			s-0.4,0.7-0.5,1.3h3.1c0-0.5-0.2-1-0.4-1.3C60.2,131.1,59.8,131,59.4,131z"/>
		<path class="st1" d="M72.2,137.6H70v-4.7c0-0.6-0.1-1-0.3-1.3c-0.2-0.3-0.5-0.4-1-0.4c-0.6,0-1.1,0.2-1.3,0.6
			c-0.3,0.4-0.4,1.1-0.4,2v3.8h-2.2v-8.1h1.7l0.3,1h0.1c0.2-0.4,0.6-0.7,1-0.9c0.4-0.2,0.9-0.3,1.5-0.3c0.9,0,1.7,0.3,2.1,0.8
			c0.5,0.5,0.7,1.2,0.7,2.2V137.6z"/>
		<path class="st1" d="M77.9,136c0.4,0,0.8-0.1,1.4-0.3v1.6c-0.5,0.2-1.2,0.4-2,0.4c-0.9,0-1.5-0.2-1.9-0.7c-0.4-0.4-0.6-1.1-0.6-2
			v-3.9h-1.1v-0.9l1.2-0.7l0.6-1.7h1.4v1.7h2.3v1.7h-2.3v3.9c0,0.3,0.1,0.5,0.3,0.7C77.4,135.9,77.6,136,77.9,136z"/>
		<path class="st1" d="M9.2,150.9c-0.9,0-1.7-0.4-2.2-1.1c-0.5-0.7-0.8-1.8-0.8-3.1c0-1.3,0.3-2.4,0.8-3.1c0.6-0.7,1.3-1.1,2.3-1.1
			c1,0,1.8,0.4,2.3,1.2h0.1c-0.1-0.6-0.2-1.1-0.2-1.6v-2.6h2.2v11.3H12l-0.4-1h-0.1C11,150.5,10.2,150.9,9.2,150.9z M10,149.2
			c0.6,0,1-0.2,1.2-0.5s0.4-0.9,0.4-1.7v-0.2c0-0.9-0.1-1.5-0.4-1.9s-0.7-0.6-1.3-0.6c-0.5,0-0.9,0.2-1.1,0.6
			c-0.3,0.4-0.4,1-0.4,1.8c0,0.8,0.1,1.4,0.4,1.8C9.1,149,9.5,149.2,10,149.2z"/>
		<path class="st1" d="M19.7,150.9c-1.3,0-2.3-0.4-3.1-1.1c-0.7-0.7-1.1-1.7-1.1-3.1c0-1.4,0.3-2.4,1-3.1c0.7-0.7,1.6-1.1,2.8-1.1
			c1.1,0,2,0.3,2.7,1c0.6,0.7,1,1.5,1,2.7v1.1h-5.2c0,0.6,0.2,1.1,0.6,1.5s0.8,0.5,1.5,0.5c0.5,0,0.9-0.1,1.4-0.2
			c0.4-0.1,0.9-0.3,1.4-0.5v1.7c-0.4,0.2-0.8,0.3-1.2,0.4C20.9,150.9,20.3,150.9,19.7,150.9z M19.4,144.1c-0.5,0-0.8,0.1-1.1,0.4
			s-0.4,0.7-0.5,1.3h3.1c0-0.5-0.2-1-0.4-1.3C20.2,144.3,19.8,144.1,19.4,144.1z"/>
		<path class="st1" d="M30.8,150.8h-2.2v-11.3h2.2V150.8z"/>
		<path class="st1" d="M38.3,150.8l-0.4-1.1h-0.1c-0.4,0.5-0.8,0.8-1.1,1c-0.4,0.2-0.9,0.3-1.5,0.3c-0.8,0-1.4-0.2-1.8-0.7
			s-0.7-1.1-0.7-1.9c0-0.9,0.3-1.5,0.9-1.9c0.6-0.4,1.5-0.6,2.7-0.7l1.4,0v-0.4c0-0.8-0.4-1.2-1.3-1.2c-0.6,0-1.4,0.2-2.3,0.6
			l-0.7-1.5c0.9-0.5,2-0.7,3.1-0.7c1.1,0,1.9,0.2,2.5,0.7c0.6,0.5,0.9,1.2,0.9,2.2v5.4H38.3z M37.6,147l-0.9,0
			c-0.6,0-1.1,0.1-1.4,0.3c-0.3,0.2-0.5,0.5-0.5,1c0,0.6,0.4,0.9,1.1,0.9c0.5,0,0.9-0.1,1.2-0.4c0.3-0.3,0.5-0.7,0.5-1.2V147z"/>
		<path class="st1" d="M47.9,150.8l-3.1-8.1h2.3l1.6,4.6c0.2,0.6,0.3,1.1,0.3,1.7h0c0-0.5,0.1-1,0.3-1.7l1.6-4.6h2.3l-3.1,8.1H47.9z
			"/>
		<path class="st1" d="M61.7,146.7c0,1.3-0.3,2.3-1,3.1c-0.7,0.7-1.7,1.1-2.9,1.1c-0.8,0-1.5-0.2-2.1-0.5s-1-0.8-1.4-1.5
			c-0.3-0.6-0.5-1.4-0.5-2.2c0-1.3,0.3-2.3,1-3.1c0.7-0.7,1.7-1.1,2.9-1.1c0.8,0,1.5,0.2,2.1,0.5s1,0.8,1.4,1.5
			C61.5,145.1,61.7,145.9,61.7,146.7z M56.1,146.7c0,0.8,0.1,1.4,0.4,1.8s0.7,0.6,1.3,0.6c0.6,0,1-0.2,1.3-0.6s0.4-1,0.4-1.8
			c0-0.8-0.1-1.4-0.4-1.8s-0.7-0.6-1.3-0.6c-0.6,0-1,0.2-1.3,0.6C56.2,145.3,56.1,145.9,56.1,146.7z"/>
		<path class="st1" d="M63.4,140.6c0-0.7,0.4-1.1,1.2-1.1c0.8,0,1.2,0.4,1.2,1.1c0,0.3-0.1,0.6-0.3,0.8c-0.2,0.2-0.5,0.3-0.9,0.3
			C63.8,141.7,63.4,141.3,63.4,140.6z M65.7,150.8h-2.2v-8.1h2.2V150.8z"/>
		<path class="st1" d="M69.7,146.7l-2.6-4h2.5l1.6,2.6l1.6-2.6h2.5l-2.6,4l2.8,4.1h-2.5l-1.7-2.8l-1.7,2.8H67L69.7,146.7z"/>
	</g>
	<g>
		<path class="st2" d="M23.1,393.5H17v-10.6h6.1v1.8h-3.8v2.3h3.6v1.8h-3.6v2.7h3.8V393.5z"/>
		<path class="st2" d="M32.6,393.5h-2.2v-4.7c0-0.6-0.1-1-0.3-1.3c-0.2-0.3-0.5-0.4-1-0.4c-0.6,0-1.1,0.2-1.3,0.6
			c-0.3,0.4-0.4,1.1-0.4,2v3.8h-2.2v-8.1h1.7l0.3,1h0.1c0.2-0.4,0.6-0.7,1-0.9c0.4-0.2,0.9-0.3,1.5-0.3c0.9,0,1.7,0.3,2.1,0.8
			c0.5,0.5,0.7,1.2,0.7,2.2V393.5z"/>
		<path class="st2" d="M34.2,397c-0.6,0-1-0.1-1.5-0.2v-1.7c0.3,0.1,0.7,0.1,1,0.1c0.4,0,0.6-0.1,0.8-0.3c0.2-0.2,0.3-0.5,0.3-0.9
			v-8.6h2.2v9c0,0.9-0.2,1.5-0.7,2S35.1,397,34.2,397z M34.8,383.3c0-0.7,0.4-1.1,1.2-1.1c0.8,0,1.2,0.4,1.2,1.1
			c0,0.3-0.1,0.6-0.3,0.8c-0.2,0.2-0.5,0.3-0.9,0.3C35.2,384.4,34.8,384,34.8,383.3z"/>
		<path class="st2" d="M43,393.6c-1.3,0-2.3-0.4-3.1-1.1c-0.7-0.7-1.1-1.7-1.1-3.1c0-1.4,0.3-2.4,1-3.1c0.7-0.7,1.6-1.1,2.8-1.1
			c1.1,0,2,0.3,2.7,1c0.6,0.7,1,1.5,1,2.7v1.1h-5.2c0,0.6,0.2,1.1,0.6,1.5s0.8,0.5,1.5,0.5c0.5,0,0.9,0,1.4-0.2
			c0.4-0.1,0.9-0.3,1.4-0.5v1.7c-0.4,0.2-0.8,0.3-1.2,0.4C44.2,393.6,43.7,393.6,43,393.6z M42.7,386.8c-0.5,0-0.8,0.1-1.1,0.4
			c-0.3,0.3-0.4,0.7-0.5,1.3h3.1c0-0.5-0.2-1-0.4-1.3C43.6,387,43.2,386.8,42.7,386.8z"/>
		<path class="st2" d="M53.9,393.5l-0.3-1h-0.1c-0.2,0.4-0.6,0.7-1,0.9c-0.4,0.2-0.9,0.3-1.5,0.3c-0.9,0-1.7-0.3-2.1-0.8
			s-0.7-1.2-0.7-2.2v-5.3h2.2v4.7c0,0.6,0.1,1,0.3,1.3c0.2,0.3,0.5,0.4,1,0.4c0.6,0,1.1-0.2,1.3-0.6c0.3-0.4,0.4-1.1,0.4-2v-3.8h2.2
			v8.1H53.9z"/>
		<path class="st2" d="M59.5,389.3l-2.6-4h2.5L61,388l1.6-2.6h2.5l-2.6,4l2.8,4.1h-2.5l-1.7-2.8l-1.7,2.8h-2.5L59.5,389.3z"/>
	</g>
	<g>
		<path class="st1" d="M369.9,133.6v4.1h-2.2v-10.6h3.1c1.4,0,2.5,0.3,3.2,0.8c0.7,0.5,1,1.3,1,2.4c0,0.6-0.2,1.2-0.5,1.7
			c-0.3,0.5-0.8,0.9-1.5,1.1c1.6,2.4,2.6,3.9,3.1,4.6h-2.5l-2.5-4.1H369.9z M369.9,131.8h0.7c0.7,0,1.2-0.1,1.6-0.4
			c0.3-0.2,0.5-0.6,0.5-1.1c0-0.5-0.2-0.9-0.5-1.1c-0.3-0.2-0.9-0.3-1.6-0.3h-0.7V131.8z"/>
		<path class="st1" d="M381,137.8c-1.3,0-2.3-0.4-3.1-1.1c-0.7-0.7-1.1-1.7-1.1-3.1c0-1.4,0.3-2.4,1-3.1c0.7-0.7,1.6-1.1,2.8-1.1
			c1.1,0,2,0.3,2.7,1c0.6,0.7,1,1.5,1,2.7v1.1h-5.2c0,0.6,0.2,1.1,0.6,1.5s0.8,0.5,1.5,0.5c0.5,0,0.9-0.1,1.4-0.2
			c0.4-0.1,0.9-0.3,1.4-0.5v1.7c-0.4,0.2-0.8,0.3-1.2,0.4C382.1,137.7,381.6,137.8,381,137.8z M380.7,131c-0.5,0-0.8,0.1-1.1,0.4
			c-0.3,0.3-0.4,0.7-0.5,1.3h3.1c0-0.5-0.2-1-0.4-1.3C381.5,131.1,381.1,131,380.7,131z"/>
		<path class="st1" d="M391.7,135.2c0,0.8-0.3,1.5-0.9,1.9c-0.6,0.4-1.4,0.7-2.6,0.7c-0.6,0-1.1,0-1.5-0.1c-0.4-0.1-0.8-0.2-1.2-0.4
			v-1.8c0.4,0.2,0.9,0.4,1.4,0.5c0.5,0.1,1,0.2,1.4,0.2c0.8,0,1.2-0.2,1.2-0.7c0-0.2-0.1-0.3-0.2-0.4s-0.3-0.2-0.5-0.4
			c-0.3-0.1-0.6-0.3-1-0.5c-0.6-0.3-1.1-0.5-1.4-0.7c-0.3-0.2-0.5-0.5-0.6-0.8c-0.1-0.3-0.2-0.6-0.2-1.1c0-0.7,0.3-1.3,0.8-1.7
			c0.6-0.4,1.3-0.6,2.4-0.6c1,0,1.9,0.2,2.8,0.6l-0.7,1.6c-0.4-0.2-0.8-0.3-1.1-0.4c-0.4-0.1-0.7-0.2-1.1-0.2c-0.7,0-1,0.2-1,0.5
			c0,0.2,0.1,0.4,0.3,0.5c0.2,0.1,0.7,0.4,1.4,0.6c0.6,0.3,1.1,0.5,1.4,0.7s0.5,0.5,0.7,0.8C391.6,134.5,391.7,134.8,391.7,135.2z"
			/>
		<path class="st1" d="M397.9,137.8c-1,0-1.7-0.3-2.2-1h-0.1c0.1,0.7,0.1,1.1,0.1,1.2v3.3h-2.2v-11.6h1.8l0.3,1h0.1
			c0.5-0.8,1.3-1.2,2.3-1.2c1,0,1.7,0.4,2.2,1.1c0.5,0.7,0.8,1.8,0.8,3.1c0,0.9-0.1,1.6-0.4,2.2c-0.3,0.6-0.6,1.1-1.1,1.5
			C399,137.6,398.5,137.8,397.9,137.8z M397.2,131.2c-0.5,0-0.9,0.2-1.2,0.5c-0.3,0.3-0.4,0.9-0.4,1.7v0.2c0,0.9,0.1,1.5,0.4,1.9
			s0.7,0.6,1.2,0.6c1,0,1.5-0.8,1.5-2.4c0-0.8-0.1-1.4-0.4-1.8C398.1,131.4,397.7,131.2,397.2,131.2z"/>
		<path class="st1" d="M402.7,127.5c0-0.7,0.4-1.1,1.2-1.1c0.8,0,1.2,0.4,1.2,1.1c0,0.3-0.1,0.6-0.3,0.8s-0.5,0.3-0.9,0.3
			C403.1,128.5,402.7,128.2,402.7,127.5z M405,137.6h-2.2v-8.1h2.2V137.6z"/>
		<path class="st1" d="M411.8,129.4c0.3,0,0.5,0,0.7,0.1l-0.2,2.1c-0.2,0-0.4-0.1-0.7-0.1c-0.7,0-1.3,0.2-1.6,0.5s-0.6,0.9-0.6,1.5
			v4.1h-2.2v-8.1h1.7l0.3,1.4h0.1c0.3-0.5,0.6-0.8,1-1.1C410.9,129.5,411.3,129.4,411.8,129.4z"/>
		<path class="st1" d="M419.2,137.6l-0.4-1.1h-0.1c-0.4,0.5-0.8,0.8-1.1,1c-0.4,0.2-0.9,0.3-1.5,0.3c-0.8,0-1.4-0.2-1.8-0.7
			c-0.4-0.4-0.7-1.1-0.7-1.9c0-0.9,0.3-1.5,0.9-1.9c0.6-0.4,1.5-0.6,2.7-0.7l1.4,0v-0.4c0-0.8-0.4-1.2-1.3-1.2
			c-0.6,0-1.4,0.2-2.3,0.6l-0.7-1.5c0.9-0.5,2-0.7,3.1-0.7c1.1,0,1.9,0.2,2.5,0.7c0.6,0.5,0.9,1.2,0.9,2.2v5.4H419.2z M418.5,133.9
			l-0.9,0c-0.6,0-1.1,0.1-1.4,0.3c-0.3,0.2-0.5,0.5-0.5,1c0,0.6,0.4,0.9,1.1,0.9c0.5,0,0.9-0.1,1.2-0.4c0.3-0.3,0.5-0.7,0.5-1.2
			V133.9z"/>
		<path class="st1" d="M426.4,136c0.4,0,0.8-0.1,1.4-0.3v1.6c-0.5,0.2-1.2,0.4-2,0.4c-0.9,0-1.5-0.2-1.9-0.7c-0.4-0.4-0.6-1.1-0.6-2
			v-3.9h-1.1v-0.9l1.2-0.7l0.6-1.7h1.4v1.7h2.3v1.7h-2.3v3.9c0,0.3,0.1,0.5,0.3,0.7S426.1,136,426.4,136z"/>
		<path class="st1" d="M429.3,127.5c0-0.7,0.4-1.1,1.2-1.1c0.8,0,1.2,0.4,1.2,1.1c0,0.3-0.1,0.6-0.3,0.8s-0.5,0.3-0.9,0.3
			C429.7,128.5,429.3,128.2,429.3,127.5z M431.6,137.6h-2.2v-8.1h2.2V137.6z"/>
		<path class="st1" d="M441.3,133.6c0,1.3-0.3,2.3-1,3.1c-0.7,0.7-1.7,1.1-2.9,1.1c-0.8,0-1.5-0.2-2.1-0.5s-1-0.8-1.4-1.5
			s-0.5-1.4-0.5-2.2c0-1.3,0.3-2.3,1-3.1c0.7-0.7,1.7-1.1,2.9-1.1c0.8,0,1.5,0.2,2.1,0.5s1,0.8,1.4,1.5S441.3,132.7,441.3,133.6z
			 M435.7,133.6c0,0.8,0.1,1.4,0.4,1.8s0.7,0.6,1.3,0.6c0.6,0,1-0.2,1.3-0.6s0.4-1,0.4-1.8c0-0.8-0.1-1.4-0.4-1.8
			c-0.3-0.4-0.7-0.6-1.3-0.6c-0.6,0-1,0.2-1.3,0.6C435.8,132.2,435.7,132.8,435.7,133.6z"/>
		<path class="st1" d="M450.6,137.6h-2.2v-4.7c0-0.6-0.1-1-0.3-1.3c-0.2-0.3-0.5-0.4-1-0.4c-0.6,0-1.1,0.2-1.3,0.6
			c-0.3,0.4-0.4,1.1-0.4,2v3.8h-2.2v-8.1h1.7l0.3,1h0.1c0.2-0.4,0.6-0.7,1-0.9c0.4-0.2,0.9-0.3,1.5-0.3c0.9,0,1.7,0.3,2.1,0.8
			c0.5,0.5,0.7,1.2,0.7,2.2V137.6z"/>
	</g>
	<g>
		<path class="st2" d="M384.2,393.5l-2.5-8.3h-0.1c0.1,1.7,0.1,2.8,0.1,3.4v4.9h-2v-10.6h3.1l2.5,8.1h0l2.7-8.1h3.1v10.6H389v-5
			c0-0.2,0-0.5,0-0.8c0-0.3,0-1.1,0.1-2.5H389l-2.7,8.3H384.2z"/>
		<path class="st2" d="M398.7,393.5l-0.4-1.1h-0.1c-0.4,0.5-0.8,0.8-1.1,1c-0.4,0.2-0.9,0.3-1.5,0.3c-0.8,0-1.4-0.2-1.8-0.7
			c-0.4-0.4-0.7-1.1-0.7-1.9c0-0.9,0.3-1.5,0.9-1.9c0.6-0.4,1.5-0.6,2.7-0.7l1.4,0v-0.4c0-0.8-0.4-1.2-1.3-1.2
			c-0.6,0-1.4,0.2-2.3,0.6l-0.7-1.5c0.9-0.5,2-0.7,3.1-0.7c1.1,0,1.9,0.2,2.5,0.7s0.9,1.2,0.9,2.2v5.4H398.7z M398,389.7l-0.9,0
			c-0.6,0-1.1,0.1-1.4,0.3s-0.5,0.5-0.5,1c0,0.6,0.4,0.9,1.1,0.9c0.5,0,0.9-0.1,1.2-0.4c0.3-0.3,0.5-0.7,0.5-1.2V389.7z"/>
		<path class="st2" d="M402.4,383.3c0-0.7,0.4-1.1,1.2-1.1c0.8,0,1.2,0.4,1.2,1.1c0,0.3-0.1,0.6-0.3,0.8s-0.5,0.3-0.9,0.3
			C402.8,384.4,402.4,384,402.4,383.3z M404.7,393.5h-2.2v-8.1h2.2V393.5z"/>
		<path class="st2" d="M410.4,391.9c0.4,0,0.8-0.1,1.4-0.3v1.6c-0.5,0.2-1.2,0.4-2,0.4c-0.9,0-1.5-0.2-1.9-0.7
			c-0.4-0.4-0.6-1.1-0.6-2V387h-1.1v-0.9l1.2-0.7l0.6-1.7h1.4v1.7h2.3v1.7h-2.3v3.9c0,0.3,0.1,0.5,0.3,0.7
			C409.9,391.8,410.1,391.9,410.4,391.9z"/>
		<path class="st2" d="M417.9,385.2c0.3,0,0.5,0,0.7,0.1l-0.2,2.1c-0.2,0-0.4-0.1-0.7-0.1c-0.7,0-1.3,0.2-1.6,0.5
			c-0.4,0.4-0.6,0.9-0.6,1.5v4.1h-2.2v-8.1h1.7l0.3,1.4h0.1c0.3-0.5,0.6-0.8,1-1.1C417,385.4,417.4,385.2,417.9,385.2z"/>
		<path class="st2" d="M420.1,383.3c0-0.7,0.4-1.1,1.2-1.1c0.8,0,1.2,0.4,1.2,1.1c0,0.3-0.1,0.6-0.3,0.8s-0.5,0.3-0.9,0.3
			C420.5,384.4,420.1,384,420.1,383.3z M422.4,393.5h-2.2v-8.1h2.2V393.5z"/>
		<path class="st2" d="M430.3,391.1c0,0.8-0.3,1.5-0.9,1.9s-1.4,0.7-2.6,0.7c-0.6,0-1.1,0-1.5-0.1c-0.4-0.1-0.8-0.2-1.2-0.4v-1.8
			c0.4,0.2,0.9,0.4,1.4,0.5c0.5,0.1,1,0.2,1.4,0.2c0.8,0,1.2-0.2,1.2-0.7c0-0.2-0.1-0.3-0.2-0.4s-0.3-0.2-0.5-0.4
			c-0.3-0.1-0.6-0.3-1-0.5c-0.6-0.3-1.1-0.5-1.4-0.7c-0.3-0.2-0.5-0.5-0.6-0.8c-0.1-0.3-0.2-0.6-0.2-1.1c0-0.7,0.3-1.3,0.8-1.7
			c0.6-0.4,1.3-0.6,2.4-0.6c1,0,1.9,0.2,2.8,0.6l-0.7,1.6c-0.4-0.2-0.8-0.3-1.1-0.4c-0.4-0.1-0.7-0.2-1.1-0.2c-0.7,0-1,0.2-1,0.5
			c0,0.2,0.1,0.4,0.3,0.5c0.2,0.1,0.7,0.4,1.4,0.6c0.6,0.3,1.1,0.5,1.4,0.7c0.3,0.2,0.5,0.5,0.7,0.8S430.3,390.7,430.3,391.1z"/>
		<path class="st2" d="M435.7,393.6c-1.3,0-2.3-0.4-3.1-1.1c-0.7-0.7-1.1-1.7-1.1-3.1c0-1.4,0.3-2.4,1-3.1c0.7-0.7,1.6-1.1,2.8-1.1
			c1.1,0,2,0.3,2.7,1c0.6,0.7,1,1.5,1,2.7v1.1h-5.2c0,0.6,0.2,1.1,0.6,1.5s0.8,0.5,1.5,0.5c0.5,0,0.9,0,1.4-0.2
			c0.4-0.1,0.9-0.3,1.4-0.5v1.7c-0.4,0.2-0.8,0.3-1.2,0.4C436.9,393.6,436.3,393.6,435.7,393.6z M435.4,386.8
			c-0.5,0-0.8,0.1-1.1,0.4c-0.3,0.3-0.4,0.7-0.5,1.3h3.1c0-0.5-0.2-1-0.4-1.3C436.2,387,435.8,386.8,435.4,386.8z"/>
		<path class="st2" d="M382.9,406.8c-1,0-1.7-0.4-2.2-1.1s-0.8-1.8-0.8-3.1c0-1.3,0.3-2.4,0.8-3.1c0.6-0.7,1.3-1.1,2.3-1.1
			c1,0,1.8,0.4,2.3,1.2h0.1c-0.1-0.6-0.2-1.1-0.2-1.6v-2.6h2.2v11.3h-1.7l-0.4-1h-0.1C384.7,406.4,383.9,406.8,382.9,406.8z
			 M383.6,405c0.6,0,1-0.2,1.2-0.5c0.3-0.3,0.4-0.9,0.4-1.7v-0.2c0-0.9-0.1-1.5-0.4-1.9s-0.7-0.6-1.3-0.6c-0.5,0-0.9,0.2-1.1,0.6
			s-0.4,1-0.4,1.8c0,0.8,0.1,1.4,0.4,1.8S383.1,405,383.6,405z"/>
		<path class="st2" d="M395.4,406.6l-0.3-1H395c-0.2,0.4-0.6,0.7-1,0.9c-0.4,0.2-0.9,0.3-1.5,0.3c-0.9,0-1.7-0.3-2.1-0.8
			c-0.5-0.5-0.7-1.2-0.7-2.2v-5.3h2.2v4.7c0,0.6,0.1,1,0.3,1.3c0.2,0.3,0.5,0.4,1,0.4c0.6,0,1.1-0.2,1.3-0.6c0.3-0.4,0.4-1.1,0.4-2
			v-3.8h2.2v8.1H395.4z"/>
		<path class="st2" d="M408.9,404.2c0,0.8-0.3,1.5-0.9,1.9s-1.4,0.7-2.6,0.7c-0.6,0-1.1,0-1.5-0.1c-0.4-0.1-0.8-0.2-1.2-0.4v-1.8
			c0.4,0.2,0.9,0.4,1.4,0.5c0.5,0.1,1,0.2,1.4,0.2c0.8,0,1.2-0.2,1.2-0.7c0-0.2-0.1-0.3-0.2-0.4s-0.3-0.2-0.5-0.4
			c-0.3-0.1-0.6-0.3-1-0.5c-0.6-0.3-1.1-0.5-1.4-0.7c-0.3-0.2-0.5-0.5-0.6-0.8c-0.1-0.3-0.2-0.6-0.2-1.1c0-0.7,0.3-1.3,0.8-1.7
			c0.6-0.4,1.3-0.6,2.4-0.6c1,0,1.9,0.2,2.8,0.6l-0.7,1.6c-0.4-0.2-0.8-0.3-1.1-0.4c-0.4-0.1-0.7-0.2-1.1-0.2c-0.7,0-1,0.2-1,0.5
			c0,0.2,0.1,0.4,0.3,0.5c0.2,0.1,0.7,0.4,1.4,0.6c0.6,0.3,1.1,0.5,1.4,0.7c0.3,0.2,0.5,0.5,0.7,0.8S408.9,403.8,408.9,404.2z"/>
		<path class="st2" d="M416.3,406.6l-0.3-1h-0.1c-0.2,0.4-0.6,0.7-1,0.9c-0.4,0.2-0.9,0.3-1.5,0.3c-0.9,0-1.7-0.3-2.1-0.8
			c-0.5-0.5-0.7-1.2-0.7-2.2v-5.3h2.2v4.7c0,0.6,0.1,1,0.3,1.3c0.2,0.3,0.5,0.4,1,0.4c0.6,0,1.1-0.2,1.3-0.6c0.3-0.4,0.4-1.1,0.4-2
			v-3.8h2.2v8.1H416.3z"/>
		<path class="st2" d="M419.7,410.2c-0.6,0-1-0.1-1.5-0.2v-1.7c0.3,0.1,0.7,0.1,1,0.1c0.4,0,0.6-0.1,0.8-0.3s0.3-0.5,0.3-0.9v-8.6
			h2.2v9c0,0.9-0.2,1.5-0.7,2S420.6,410.2,419.7,410.2z M420.3,396.5c0-0.7,0.4-1.1,1.2-1.1c0.8,0,1.2,0.4,1.2,1.1
			c0,0.3-0.1,0.6-0.3,0.8s-0.5,0.3-0.9,0.3C420.7,397.5,420.3,397.2,420.3,396.5z"/>
		<path class="st2" d="M428.5,406.8c-1.3,0-2.3-0.4-3.1-1.1c-0.7-0.7-1.1-1.7-1.1-3.1c0-1.4,0.3-2.4,1-3.1c0.7-0.7,1.6-1.1,2.8-1.1
			c1.1,0,2,0.3,2.7,1c0.6,0.7,1,1.5,1,2.7v1.1h-5.2c0,0.6,0.2,1.1,0.6,1.5s0.8,0.5,1.5,0.5c0.5,0,0.9,0,1.4-0.2
			c0.4-0.1,0.9-0.3,1.4-0.5v1.7c-0.4,0.2-0.8,0.3-1.2,0.4C429.7,406.7,429.2,406.8,428.5,406.8z M428.2,400c-0.5,0-0.8,0.1-1.1,0.4
			c-0.3,0.3-0.4,0.7-0.5,1.3h3.1c0-0.5-0.2-1-0.4-1.3C429.1,400.1,428.7,400,428.2,400z"/>
		<path class="st2" d="M437,405c0.4,0,0.8-0.1,1.4-0.3v1.6c-0.5,0.2-1.2,0.4-2,0.4c-0.9,0-1.5-0.2-1.9-0.7c-0.4-0.4-0.6-1.1-0.6-2
			v-3.9h-1.1v-0.9l1.2-0.7l0.6-1.7h1.4v1.7h2.3v1.7h-2.3v3.9c0,0.3,0.1,0.5,0.3,0.7C436.5,404.9,436.7,405,437,405z"/>
	</g>
	<g>
		<path class="st1" d="M204.7,50.6c0,1.1-0.4,2-1.1,2.6s-1.7,0.9-3,0.9h-1v3.8h-2.2V47.3h3.4c1.3,0,2.3,0.3,2.9,0.8
			S204.7,49.5,204.7,50.6z M199.6,52.2h0.7c0.7,0,1.2-0.1,1.5-0.4c0.3-0.3,0.5-0.7,0.5-1.2c0-0.5-0.1-0.9-0.4-1.2
			c-0.3-0.3-0.7-0.4-1.3-0.4h-1V52.2z"/>
		<path class="st1" d="M213.8,53.8c0,1.3-0.3,2.3-1,3.1c-0.7,0.7-1.7,1.1-2.9,1.1c-0.8,0-1.5-0.2-2.1-0.5s-1-0.8-1.4-1.5
			c-0.3-0.6-0.5-1.4-0.5-2.2c0-1.3,0.3-2.3,1-3.1c0.7-0.7,1.7-1.1,2.9-1.1c0.8,0,1.5,0.2,2.1,0.5s1,0.8,1.4,1.5
			C213.7,52.2,213.8,52.9,213.8,53.8z M208.2,53.8c0,0.8,0.1,1.4,0.4,1.8s0.7,0.6,1.3,0.6c0.6,0,1-0.2,1.3-0.6s0.4-1,0.4-1.8
			c0-0.8-0.1-1.4-0.4-1.8s-0.7-0.6-1.3-0.6c-0.6,0-1,0.2-1.3,0.6C208.4,52.4,208.2,53,208.2,53.8z"/>
		<path class="st1" d="M221.3,55.4c0,0.8-0.3,1.5-0.9,1.9c-0.6,0.4-1.4,0.7-2.6,0.7c-0.6,0-1.1,0-1.5-0.1s-0.8-0.2-1.2-0.4v-1.8
			c0.4,0.2,0.9,0.4,1.4,0.5c0.5,0.1,1,0.2,1.4,0.2c0.8,0,1.2-0.2,1.2-0.7c0-0.2-0.1-0.3-0.2-0.4s-0.3-0.2-0.5-0.4s-0.6-0.3-1-0.5
			c-0.6-0.3-1.1-0.5-1.4-0.7c-0.3-0.2-0.5-0.5-0.6-0.8c-0.1-0.3-0.2-0.6-0.2-1.1c0-0.7,0.3-1.3,0.8-1.7c0.6-0.4,1.3-0.6,2.4-0.6
			c1,0,1.9,0.2,2.8,0.6l-0.7,1.6c-0.4-0.2-0.8-0.3-1.1-0.4c-0.4-0.1-0.7-0.2-1.1-0.2c-0.7,0-1,0.2-1,0.5c0,0.2,0.1,0.4,0.3,0.5
			c0.2,0.1,0.7,0.4,1.4,0.6c0.6,0.3,1.1,0.5,1.4,0.7s0.5,0.5,0.7,0.8C221.2,54.7,221.3,55,221.3,55.4z"/>
		<path class="st1" d="M226.4,56.2c0.4,0,0.8-0.1,1.4-0.3v1.6c-0.5,0.2-1.2,0.4-2,0.4c-0.9,0-1.5-0.2-1.9-0.7
			c-0.4-0.4-0.6-1.1-0.6-2v-3.9h-1.1v-0.9l1.2-0.7L224,48h1.4v1.7h2.3v1.7h-2.3v3.9c0,0.3,0.1,0.5,0.3,0.7
			C225.9,56.1,226.1,56.2,226.4,56.2z"/>
		<path class="st1" d="M235.2,57.8l-0.3-1h-0.1c-0.2,0.4-0.6,0.7-1,0.9c-0.4,0.2-0.9,0.3-1.5,0.3c-0.9,0-1.7-0.3-2.1-0.8
			c-0.5-0.5-0.7-1.2-0.7-2.2v-5.3h2.2v4.7c0,0.6,0.1,1,0.3,1.3c0.2,0.3,0.5,0.4,1,0.4c0.6,0,1.1-0.2,1.3-0.6c0.3-0.4,0.4-1.1,0.4-2
			v-3.8h2.2v8.1H235.2z"/>
		<path class="st1" d="M243.7,49.6c0.3,0,0.5,0,0.7,0.1l-0.2,2.1c-0.2,0-0.4-0.1-0.7-0.1c-0.7,0-1.3,0.2-1.6,0.5s-0.6,0.9-0.6,1.5
			v4.1h-2.2v-8.1h1.7l0.3,1.4h0.1c0.3-0.5,0.6-0.8,1-1.1C242.7,49.7,243.2,49.6,243.7,49.6z"/>
		<path class="st1" d="M249.5,58c-1.3,0-2.3-0.4-3.1-1.1c-0.7-0.7-1.1-1.7-1.1-3.1c0-1.4,0.3-2.4,1-3.1c0.7-0.7,1.6-1.1,2.8-1.1
			c1.1,0,2,0.3,2.7,1c0.6,0.7,1,1.5,1,2.7v1.1h-5.2c0,0.6,0.2,1.1,0.6,1.5s0.8,0.5,1.5,0.5c0.5,0,0.9-0.1,1.4-0.2
			c0.4-0.1,0.9-0.3,1.4-0.5v1.7c-0.4,0.2-0.8,0.3-1.2,0.4C250.7,57.9,250.2,58,249.5,58z M249.2,51.2c-0.5,0-0.8,0.1-1.1,0.4
			c-0.3,0.3-0.4,0.7-0.5,1.3h3.1c0-0.5-0.2-1-0.4-1.3C250.1,51.3,249.7,51.2,249.2,51.2z"/>
	</g>
	<g>
		<path class="st2" d="M172.5,483.1h-6.1v-10.6h6.1v1.8h-3.8v2.3h3.6v1.8h-3.6v2.7h3.8V483.1z"/>
		<path class="st2" d="M178,481.5c0.4,0,0.8-0.1,1.4-0.3v1.6c-0.5,0.2-1.2,0.4-2,0.4c-0.9,0-1.5-0.2-1.9-0.7c-0.4-0.4-0.6-1.1-0.6-2
			v-3.9h-1.1v-0.9l1.2-0.7l0.6-1.7h1.4v1.7h2.3v1.7H177v3.9c0,0.3,0.1,0.5,0.3,0.7C177.5,481.5,177.7,481.5,178,481.5z"/>
		<path class="st2" d="M186.1,483.1l-0.4-1.1h-0.1c-0.4,0.5-0.8,0.8-1.1,1c-0.4,0.2-0.9,0.3-1.5,0.3c-0.8,0-1.4-0.2-1.8-0.7
			s-0.7-1.1-0.7-1.9c0-0.9,0.3-1.5,0.9-1.9s1.5-0.6,2.7-0.7l1.4,0v-0.4c0-0.8-0.4-1.2-1.3-1.2c-0.6,0-1.4,0.2-2.3,0.6l-0.7-1.5
			c0.9-0.5,2-0.7,3.1-0.7c1.1,0,1.9,0.2,2.5,0.7c0.6,0.5,0.9,1.2,0.9,2.2v5.4H186.1z M185.5,479.4l-0.9,0c-0.6,0-1.1,0.1-1.4,0.3
			c-0.3,0.2-0.5,0.5-0.5,1c0,0.6,0.4,0.9,1.1,0.9c0.5,0,0.9-0.1,1.2-0.4c0.3-0.3,0.5-0.7,0.5-1.2V479.4z"/>
		<path class="st2" d="M193.4,481.5c0.4,0,0.8-0.1,1.4-0.3v1.6c-0.5,0.2-1.2,0.4-2,0.4c-0.9,0-1.5-0.2-1.9-0.7
			c-0.4-0.4-0.6-1.1-0.6-2v-3.9h-1.1v-0.9l1.2-0.7l0.6-1.7h1.4v1.7h2.3v1.7h-2.3v3.9c0,0.3,0.1,0.5,0.3,0.7
			C192.8,481.5,193.1,481.5,193.4,481.5z"/>
		<path class="st2" d="M203.9,483.3c-1.3,0-2.3-0.4-3.1-1.1c-0.7-0.7-1.1-1.7-1.1-3.1c0-1.4,0.3-2.4,1-3.1c0.7-0.7,1.6-1.1,2.8-1.1
			c1.1,0,2,0.3,2.7,1c0.6,0.7,1,1.5,1,2.7v1.1H202c0,0.6,0.2,1.1,0.6,1.5s0.8,0.5,1.5,0.5c0.5,0,0.9,0,1.4-0.2
			c0.4-0.1,0.9-0.3,1.4-0.5v1.7c-0.4,0.2-0.8,0.3-1.2,0.4C205.1,483.2,204.5,483.3,203.9,483.3z M203.6,476.5
			c-0.5,0-0.8,0.1-1.1,0.4c-0.3,0.3-0.4,0.7-0.5,1.3h3.1c0-0.5-0.2-1-0.4-1.3C204.4,476.6,204,476.5,203.6,476.5z"/>
		<path class="st2" d="M216.2,483.1H214v-4.7c0-0.6-0.1-1-0.3-1.3c-0.2-0.3-0.5-0.4-0.9-0.4c-0.6,0-1,0.2-1.2,0.6
			c-0.3,0.4-0.4,1.1-0.4,2v3.8H209v-8.1h1.7l0.3,1h0.1c0.2-0.4,0.5-0.7,0.9-0.9s0.9-0.3,1.4-0.3c1.2,0,2,0.4,2.5,1.2h0.2
			c0.2-0.4,0.5-0.7,1-0.9c0.4-0.2,0.9-0.3,1.4-0.3c0.9,0,1.6,0.2,2.1,0.7c0.5,0.5,0.7,1.2,0.7,2.3v5.3H219v-4.7c0-0.6-0.1-1-0.3-1.3
			c-0.2-0.3-0.5-0.4-0.9-0.4c-0.5,0-0.9,0.2-1.2,0.6s-0.4,1-0.4,1.8V483.1z"/>
		<path class="st2" d="M230.9,479.1c0,1.3-0.3,2.3-1,3.1c-0.7,0.7-1.7,1.1-2.9,1.1c-0.8,0-1.5-0.2-2.1-0.5s-1-0.8-1.4-1.5
			c-0.3-0.6-0.5-1.4-0.5-2.2c0-1.3,0.3-2.3,1-3.1c0.7-0.7,1.7-1.1,2.9-1.1c0.8,0,1.5,0.2,2.1,0.5c0.6,0.3,1,0.8,1.4,1.5
			C230.7,477.5,230.9,478.2,230.9,479.1z M225.3,479.1c0,0.8,0.1,1.4,0.4,1.8c0.3,0.4,0.7,0.6,1.3,0.6c0.6,0,1-0.2,1.3-0.6
			c0.3-0.4,0.4-1,0.4-1.8c0-0.8-0.1-1.4-0.4-1.8s-0.7-0.6-1.3-0.6c-0.6,0-1,0.2-1.3,0.6S225.3,478.3,225.3,479.1z"/>
		<path class="st2" d="M236.1,481.5c0.4,0,0.8-0.1,1.4-0.3v1.6c-0.5,0.2-1.2,0.4-2,0.4c-0.9,0-1.5-0.2-1.9-0.7
			c-0.4-0.4-0.6-1.1-0.6-2v-3.9h-1.1v-0.9l1.2-0.7l0.6-1.7h1.4v1.7h2.3v1.7h-2.3v3.9c0,0.3,0.1,0.5,0.3,0.7
			C235.6,481.5,235.8,481.5,236.1,481.5z"/>
		<path class="st2" d="M239,473c0-0.7,0.4-1.1,1.2-1.1c0.8,0,1.2,0.4,1.2,1.1c0,0.3-0.1,0.6-0.3,0.8s-0.5,0.3-0.9,0.3
			C239.4,474.1,239,473.7,239,473z M241.3,483.1h-2.2v-8.1h2.2V483.1z"/>
		<path class="st2" d="M251,479.1c0,1.3-0.3,2.3-1,3.1c-0.7,0.7-1.7,1.1-2.9,1.1c-0.8,0-1.5-0.2-2.1-0.5s-1-0.8-1.4-1.5
			c-0.3-0.6-0.5-1.4-0.5-2.2c0-1.3,0.3-2.3,1-3.1c0.7-0.7,1.7-1.1,2.9-1.1c0.8,0,1.5,0.2,2.1,0.5c0.6,0.3,1,0.8,1.4,1.5
			C250.8,477.5,251,478.2,251,479.1z M245.4,479.1c0,0.8,0.1,1.4,0.4,1.8c0.3,0.4,0.7,0.6,1.3,0.6c0.6,0,1-0.2,1.3-0.6
			c0.3-0.4,0.4-1,0.4-1.8c0-0.8-0.1-1.4-0.4-1.8c-0.3-0.4-0.7-0.6-1.3-0.6c-0.6,0-1,0.2-1.3,0.6
			C245.5,477.7,245.4,478.3,245.4,479.1z"/>
		<path class="st2" d="M260.3,483.1h-2.2v-4.7c0-0.6-0.1-1-0.3-1.3c-0.2-0.3-0.5-0.4-1-0.4c-0.6,0-1.1,0.2-1.3,0.6
			c-0.3,0.4-0.4,1.1-0.4,2v3.8h-2.2v-8.1h1.7l0.3,1h0.1c0.2-0.4,0.6-0.7,1-0.9c0.4-0.2,0.9-0.3,1.5-0.3c0.9,0,1.7,0.3,2.1,0.8
			c0.5,0.5,0.7,1.2,0.7,2.2V483.1z"/>
		<path class="st2" d="M270,483.1h-2.2v-4.7c0-0.6-0.1-1-0.3-1.3c-0.2-0.3-0.5-0.4-1-0.4c-0.6,0-1.1,0.2-1.3,0.6
			c-0.3,0.4-0.4,1.1-0.4,2v3.8h-2.2v-8.1h1.7l0.3,1h0.1c0.2-0.4,0.6-0.7,1-0.9c0.4-0.2,0.9-0.3,1.5-0.3c0.9,0,1.7,0.3,2.1,0.8
			c0.5,0.5,0.7,1.2,0.7,2.2V483.1z"/>
		<path class="st2" d="M275.9,483.3c-1.3,0-2.3-0.4-3.1-1.1c-0.7-0.7-1.1-1.7-1.1-3.1c0-1.4,0.3-2.4,1-3.1c0.7-0.7,1.6-1.1,2.8-1.1
			c1.1,0,2,0.3,2.7,1c0.6,0.7,1,1.5,1,2.7v1.1H274c0,0.6,0.2,1.1,0.6,1.5s0.8,0.5,1.5,0.5c0.5,0,0.9,0,1.4-0.2
			c0.4-0.1,0.9-0.3,1.4-0.5v1.7c-0.4,0.2-0.8,0.3-1.2,0.4C277.1,483.2,276.5,483.3,275.9,483.3z M275.6,476.5
			c-0.5,0-0.8,0.1-1.1,0.4c-0.3,0.3-0.4,0.7-0.5,1.3h3.1c0-0.5-0.2-1-0.4-1.3C276.4,476.6,276.1,476.5,275.6,476.5z"/>
		<path class="st2" d="M283.2,483.1H281v-11.3h2.2V483.1z"/>
	</g>
	<g>
		<path class="st1" d="M108.1,19.6h-3.5v-10h-3.1V6.7h9.7v2.8h-3.1V19.6z"/>
		<path class="st1" d="M116.5,14.9v4.7H113V6.7h4.2c3.5,0,5.2,1.3,5.2,3.8c0,1.5-0.7,2.6-2.2,3.5l3.7,5.6h-3.9l-2.7-4.7H116.5z
			 M116.5,12.3h0.7c1.2,0,1.8-0.5,1.8-1.6c0-0.9-0.6-1.3-1.8-1.3h-0.7V12.3z"/>
		<path class="st1" d="M133.1,19.6l-0.6-2.4h-4.2l-0.7,2.4h-3.8L128,6.7h4.6l4.2,12.9H133.1z M131.7,14.3l-0.6-2.1
			c-0.1-0.5-0.3-1.1-0.5-1.8s-0.3-1.3-0.4-1.6c-0.1,0.3-0.2,0.8-0.3,1.5s-0.5,2-1,4.1H131.7z"/>
		<path class="st1" d="M145.5,6.7h3.9l-4.2,12.8h-4.1l-4.2-12.8h3.9l1.7,6.5c0.4,1.4,0.6,2.5,0.6,3c0-0.4,0.1-0.9,0.2-1.5
			s0.2-1.1,0.3-1.5L145.5,6.7z"/>
		<path class="st1" d="M158.7,19.6l-0.6-2.4h-4.2l-0.7,2.4h-3.8l4.2-12.9h4.6l4.2,12.9H158.7z M157.3,14.3l-0.6-2.1
			c-0.1-0.5-0.3-1.1-0.5-1.8s-0.3-1.3-0.4-1.6c-0.1,0.3-0.2,0.8-0.3,1.5s-0.5,2-1,4.1H157.3z"/>
		<path class="st1" d="M163.8,19.6V6.7h3.5v12.8H163.8z"/>
		<path class="st1" d="M170.1,19.6V6.7h3.5v10h4.9v2.8H170.1z"/>
		<path class="st1" d="M193.7,15.7c0,0.8-0.2,1.5-0.6,2.1s-1,1.1-1.7,1.4s-1.7,0.5-2.7,0.5c-0.9,0-1.6-0.1-2.2-0.2s-1.2-0.3-1.8-0.6
			v-3.1c0.7,0.3,1.4,0.6,2.1,0.8s1.4,0.3,2,0.3c0.5,0,0.9-0.1,1.1-0.3s0.4-0.4,0.4-0.7c0-0.2,0-0.3-0.1-0.5s-0.3-0.3-0.5-0.4
			s-0.8-0.4-1.7-0.8c-0.8-0.4-1.5-0.8-1.9-1.1s-0.7-0.8-0.9-1.2s-0.3-1-0.3-1.6c0-1.2,0.4-2.1,1.3-2.8s2-1,3.6-1
			c1.3,0,2.7,0.3,4.1,0.9l-1.1,2.7c-1.2-0.6-2.2-0.8-3.1-0.8c-0.5,0-0.8,0.1-1,0.2s-0.3,0.4-0.3,0.6c0,0.3,0.1,0.5,0.4,0.7
			s1,0.6,2.1,1.1c1.1,0.5,1.9,1,2.3,1.6S193.7,14.8,193.7,15.7z"/>
		<path class="st1" d="M206.6,6.7v7.7c0,1.7-0.5,3-1.4,3.9s-2.3,1.4-4.1,1.4c-1.8,0-3.1-0.4-4-1.3s-1.4-2.2-1.4-3.9V6.7h3.5v7.5
			c0,0.9,0.2,1.6,0.5,2c0.3,0.4,0.8,0.6,1.5,0.6c0.7,0,1.2-0.2,1.5-0.6c0.3-0.4,0.5-1.1,0.5-2V6.7H206.6z"/>
		<path class="st1" d="M212.7,14.9v4.7h-3.5V6.7h4.2c3.5,0,5.2,1.3,5.2,3.8c0,1.5-0.7,2.6-2.2,3.5l3.7,5.6h-3.9l-2.7-4.7H212.7z
			 M212.7,12.3h0.7c1.2,0,1.8-0.5,1.8-1.6c0-0.9-0.6-1.3-1.8-1.3h-0.7V12.3z"/>
		<path class="st1" d="M226.1,19.6V6.7h3.5v10h4.9v2.8H226.1z"/>
		<path class="st1" d="M239.4,6.8l0.1,0.2c-0.5,2.1-1.1,3.8-1.6,4.9h-2.4c0.4-1.9,0.7-3.6,0.9-5.1H239.4z"/>
		<path class="st1" d="M248.7,19.6h-7.6V6.7h7.6v2.8h-4.2v2h3.8v2.8h-3.8v2.4h4.2V19.6z"/>
		<path class="st1" d="M251,19.6V6.7h3.5v10h4.9v2.8H251z"/>
		<path class="st1" d="M273.5,13.1c0,2.2-0.5,3.8-1.6,4.9s-2.6,1.7-4.7,1.7c-2,0-3.6-0.6-4.6-1.7s-1.6-2.8-1.6-4.9
			c0-2.1,0.5-3.8,1.6-4.9s2.6-1.7,4.7-1.7c2,0,3.6,0.6,4.7,1.7S273.5,11,273.5,13.1z M264.6,13.1c0,2.5,0.9,3.7,2.6,3.7
			c0.9,0,1.5-0.3,2-0.9c0.4-0.6,0.6-1.5,0.6-2.8c0-1.3-0.2-2.2-0.6-2.8s-1.1-0.9-1.9-0.9C265.5,9.4,264.6,10.6,264.6,13.1z"/>
		<path class="st1" d="M287.8,13.1c0,2.9-0.9,4.9-2.8,5.9l3.1,3.6h-4.3l-2.3-2.9l0,0v0l0,0c-2,0-3.6-0.6-4.6-1.7s-1.6-2.8-1.6-4.9
			c0-2.1,0.5-3.8,1.6-4.9s2.6-1.7,4.7-1.7c2,0,3.6,0.6,4.7,1.7S287.8,11,287.8,13.1z M279,13.1c0,2.5,0.9,3.7,2.6,3.7
			c0.9,0,1.5-0.3,2-0.9c0.4-0.6,0.6-1.5,0.6-2.8c0-1.3-0.2-2.2-0.6-2.8s-1.1-0.9-1.9-0.9C279.9,9.4,279,10.6,279,13.1z"/>
		<path class="st1" d="M301.1,6.7v7.7c0,1.7-0.5,3-1.4,3.9s-2.3,1.4-4.1,1.4c-1.8,0-3.1-0.4-4-1.3s-1.4-2.2-1.4-3.9V6.7h3.5v7.5
			c0,0.9,0.2,1.6,0.5,2c0.3,0.4,0.8,0.6,1.5,0.6c0.7,0,1.2-0.2,1.5-0.6c0.3-0.4,0.5-1.1,0.5-2V6.7H301.1z"/>
		<path class="st1" d="M311.4,19.6h-7.6V6.7h7.6v2.8h-4.2v2h3.8v2.8h-3.8v2.4h4.2V19.6z"/>
		<path class="st1" d="M325.9,19.6h-4.6l-4.7-9.1h-0.1c0.1,1.4,0.2,2.5,0.2,3.3v5.8h-3.1V6.7h4.5l4.7,8.9h0.1
			c-0.1-1.3-0.1-2.3-0.1-3.1V6.7h3.1V19.6z"/>
		<path class="st1" d="M334.4,9.4c-0.8,0-1.5,0.3-1.9,1s-0.7,1.6-0.7,2.8c0,2.5,0.9,3.7,2.8,3.7c0.6,0,1.1-0.1,1.7-0.2
			s1.1-0.3,1.6-0.6V19c-1.1,0.5-2.3,0.7-3.6,0.7c-1.9,0-3.4-0.6-4.5-1.7c-1-1.1-1.6-2.8-1.6-4.9c0-1.3,0.3-2.5,0.8-3.5
			s1.2-1.8,2.2-2.3c0.9-0.5,2-0.8,3.3-0.8c1.4,0,2.7,0.3,4,0.9l-1.1,2.7c-0.5-0.2-0.9-0.4-1.4-0.6S334.9,9.4,334.4,9.4z"/>
		<path class="st1" d="M348,19.6h-7.6V6.7h7.6v2.8h-4.2v2h3.8v2.8h-3.8v2.4h4.2V19.6z"/>
	</g>
	<g>
		<path class="st2" d="M182.4,515.4c-0.8,0-1.5,0.3-1.9,1c-0.5,0.7-0.7,1.6-0.7,2.8c0,2.5,0.9,3.7,2.8,3.7c0.6,0,1.1-0.1,1.7-0.2
			s1.1-0.3,1.6-0.6v2.9c-1.1,0.5-2.3,0.7-3.6,0.7c-1.9,0-3.4-0.6-4.5-1.7s-1.6-2.8-1.6-4.9c0-1.3,0.3-2.5,0.8-3.5s1.2-1.8,2.2-2.3
			c0.9-0.5,2-0.8,3.3-0.8c1.4,0,2.7,0.3,4,0.9l-1.1,2.7c-0.5-0.2-0.9-0.4-1.4-0.6S183,515.4,182.4,515.4z"/>
		<path class="st2" d="M200.4,519.1c0,2.2-0.5,3.8-1.6,4.9s-2.6,1.7-4.7,1.7c-2,0-3.6-0.6-4.6-1.7s-1.6-2.8-1.6-4.9
			c0-2.1,0.5-3.8,1.6-4.9c1.1-1.1,2.6-1.7,4.7-1.7c2,0,3.6,0.6,4.6,1.7S200.4,517,200.4,519.1z M191.6,519.1c0,2.5,0.9,3.7,2.6,3.7
			c0.9,0,1.5-0.3,2-0.9s0.6-1.5,0.6-2.8c0-1.3-0.2-2.2-0.6-2.8c-0.4-0.6-1.1-0.9-1.9-0.9C192.5,515.4,191.6,516.6,191.6,519.1z"/>
		<path class="st2" d="M210.6,525.6l-0.6-2.4h-4.2l-0.7,2.4h-3.8l4.2-12.9h4.6l4.2,12.9H210.6z M209.3,520.3l-0.6-2.1
			c-0.1-0.5-0.3-1.1-0.5-1.8s-0.3-1.3-0.4-1.6c-0.1,0.3-0.2,0.8-0.3,1.5s-0.5,2-1,4.1H209.3z"/>
		<path class="st2" d="M221.5,515.4c-0.8,0-1.5,0.3-1.9,1c-0.5,0.7-0.7,1.6-0.7,2.8c0,2.5,0.9,3.7,2.8,3.7c0.6,0,1.1-0.1,1.7-0.2
			s1.1-0.3,1.6-0.6v2.9c-1.1,0.5-2.3,0.7-3.6,0.7c-1.9,0-3.4-0.6-4.5-1.7s-1.6-2.8-1.6-4.9c0-1.3,0.3-2.5,0.8-3.5s1.2-1.8,2.2-2.3
			c0.9-0.5,2-0.8,3.3-0.8c1.4,0,2.7,0.3,4,0.9l-1.1,2.7c-0.5-0.2-0.9-0.4-1.4-0.6S222.1,515.4,221.5,515.4z"/>
		<path class="st2" d="M238.5,525.6H235v-5.2h-4v5.2h-3.5v-12.8h3.5v4.8h4v-4.8h3.5V525.6z"/>
		<path class="st2" d="M241.3,525.6v-12.8h3.5v12.8H241.3z"/>
		<path class="st2" d="M259.8,525.6h-4.6l-4.7-9.1h-0.1c0.1,1.4,0.2,2.5,0.2,3.3v5.8h-3.1v-12.8h4.5l4.7,8.9h0.1
			c-0.1-1.3-0.1-2.3-0.1-3.1v-5.8h3.1V525.6z"/>
		<path class="st2" d="M267.7,518.1h5.5v6.9c-1.5,0.5-3.2,0.8-5,0.8c-2,0-3.5-0.6-4.6-1.7s-1.6-2.8-1.6-4.9c0-2.1,0.6-3.7,1.8-4.8
			s2.8-1.7,5-1.7c0.8,0,1.6,0.1,2.3,0.2s1.3,0.3,1.9,0.6l-1.1,2.7c-0.9-0.5-1.9-0.7-3-0.7c-1,0-1.8,0.3-2.4,1
			c-0.6,0.7-0.8,1.6-0.8,2.8c0,1.2,0.3,2.1,0.8,2.7c0.5,0.6,1.2,0.9,2.2,0.9c0.5,0,1,0,1.4-0.1v-2h-2.3V518.1z"/>
	</g>
</g>
</svg>
