<?xml version="1.0" encoding="utf-8"?>
<!-- Generator: Adobe Illustrator 22.0.0, SVG Export Plug-In . SVG Version: 6.00 Build 0)  -->
<svg version="1.1" id="Layer_1" xmlns="http://www.w3.org/2000/svg" xmlns:xlink="http://www.w3.org/1999/xlink" x="0px" y="0px"
	 viewBox="0 0 467 287.7" style="enable-background:new 0 0 467 287.7;" xml:space="preserve">
<path d="M15.1,231.6c9.4,5.8,20.7,5.9,31,5.3c12.2-0.7,25.1-5.5,34.8-13.8c8.3-7.2,13.1-17.7,13-28.7c0-6.1-1.6-10.9-4.7-14.5
	c-3.1-3.6-7-6.2-11.4-8c-4.5-1.7-10.4-3.6-17.7-5.6c-6.1-1.7-10.9-3.2-14.2-4.6c-3.4-1.4-6.2-3.3-8.5-5.8c-2.3-2.4-3.4-5.5-3.4-9.2
	c0-5.5,2.2-10,6.6-13.4c4.4-3.4,10.8-5.6,19.1-6.6c5.9-0.7,10.9-0.4,14.8,1.1c4,1.5,6,4.3,6,8.4c0,0.8-0.1,2.6-0.4,5.6
	c-0.3,1.6-0.4,3.3-0.4,5.2c0,2.1,0.9,3.8,2.5,5.1c1.7,1.3,3.8,1.7,6.3,1.2c3.6-0.6,6.3-2.7,8.1-6.1c1.8-3.4,2.8-8.2,2.8-14.3
	c0-6.2-1.8-11.1-5.3-14.7c-3.5-3.6-8.3-5.9-14.2-7.1c-5.9-1.1-12.4-1.2-19.5-0.3c-9.5,1.2-17.8,3.5-24.8,7c-7,3.5-12.4,8-16.1,13.6
	c-3.7,5.6-5.6,11.8-5.6,18.8c0,6.7,1.7,12.2,5,16.6c3.3,4.4,7.4,7.7,12.1,10.1c4.7,2.3,10.8,4.6,18.2,6.7c5.8,1.7,10.3,3.1,13.5,4.3
	c3.2,1.2,5.9,2.8,8,4.8c2.1,2.1,3.2,4.7,3.2,8c0,5.3-2.3,9.8-7,13.4c-4.7,3.6-11.1,5.9-19.3,6.8c-7.9,0.8-14.1,0.2-18.5-1.7
	c-4.4-1.9-6.6-5-6.6-9.4c0-1.1,0.1-2.1,0.2-3.1c0.1-1,0.2-1.7,0.2-2c0.3-1.5,0.4-3.2,0.4-5.1c0-2.1-0.8-3.8-2.5-5.1
	c-1.6-1.3-3.8-1.9-6.4-1.8c-3.6,0.1-6.3,1.5-8.1,4.4c-1.8,2.8-2.8,6.9-2.8,12.2C3.5,219.4,7.5,226.9,15.1,231.6z"/>
<path d="M215.8,77c-1.7,0.5-3.3,1.4-4.7,2.8c-1.4,1.3-2.5,3.1-3.4,5.3c-4.5,11.4-9,22.7-13.5,34.1c-0.5,1.3-0.7,2.3-0.7,3
	c0,1.5,0.5,2.5,1.5,3.3c1,0.7,2.2,0.9,3.6,0.5c1.8-0.5,3.4-1.8,4.7-3.8c6.3-9.8,12.5-19.7,18.7-29.6c2.1-3.3,3.2-6.4,3.2-9.1
	c0-2.6-0.9-4.5-2.8-5.7C220.4,76.5,218.3,76.3,215.8,77z"/>
<path d="M460,81.9c-0.9-0.6-2.4-0.9-4.7-0.8c-3.2,0-5.6,0.8-7.2,2.1c-1.6,1.3-2.8,3.4-3.6,6.4c-2.3,8.7-4.7,16.1-7.2,22.2
	c-2.5,6.1-4.8,10.6-7,13.7c-2.2,3.1-4,4.7-5.5,4.8c-2,0.2-3.1-1.6-3.1-5.3c0-2.3,0.3-5.3,0.9-9c0.6-3.7,1.3-7.6,2-11.6
	c0.6-3,1.4-6.3,2.3-9.9c1.1-4.5,1.6-7.2,1.6-8c0-1.4-0.4-2.3-1.2-3s-2.3-0.8-4.4-0.6c-3.8,0.3-6.5,1.3-8.3,2.7
	c-1.7,1.4-3.1,3.7-4.1,6.7c-2.2,7-3.8,13.7-4.8,19.8c-0.7,4.5-1.1,9.3-1.3,14.3c-3,3.7-5.6,6.6-7.8,8.5c-3,2.7-6.5,4.4-10.5,5
	c-2.5,0.4-4.6-0.1-6.1-1.5c-1.5-1.4-2.7-4.1-3.3-7.9c9.9-15.7,19.5-32,26-49.2c5-13.2,9.5-26.9,9.6-41.3c0-8-1.3-14.1-4-18.1
	c-2.7-4-6.4-5.7-11-5c-10.1,1.5-17.1,11-21.3,19.7c-6.4,13.2-10.7,27.4-13.5,41.5c-2.7,13.3-4.5,27.4-4.6,41.3
	c0,4.6,0.3,8.8,0.9,12.6c-3.6,4.7-7.8,8.8-12.6,12.5c-5.6,4.3-10.5,7-14.9,8c-6.8,1.6-11.4,0.5-13.8-3.3c8.6-4.8,18-9.5,24.3-17.2
	c4.8-5.8,7.2-12.1,7.2-18.8c0-5.7-1.7-9.9-5.1-12.5c-3.4-2.6-7.9-3.2-13.5-1.9c-6.3,1.5-11.9,4.6-16.9,9.3
	c-5,4.7-8.9,10.3-11.7,16.8c-2.8,6.5-4.2,13.1-4.2,19.8c0,2.1,0.1,4.1,0.4,6c-2.1,2.8-4,5.1-5.5,6.8c-2.8,3.1-5.7,5.1-8.7,5.9
	c-2.8,0.8-5.2,0.7-7.2-0.4c-2-1-3.2-2.8-3.6-5.3c6.6-5.4,11.2-10.6,14-15.8c2.7-5.2,4.1-10.5,4.1-15.8c0-4.8-1.5-8.5-4.4-11
	c-3-2.5-6.9-3-11.7-1.7c-5.2,1.5-10.9,5.8-16.9,13c-7.4,9-12.3,20-16,31c0-5.3,0.1-10.6,0.4-15.7c10.1-14.4,21-29.1,27.9-44.9
	c4.5-10.2,8.6-21.2,8.6-32.9c0-6.1-1.4-10.7-4.1-13.7c-2.8-3-6.4-4-10.8-2.7c-10.3,3.1-17.2,13.4-21.4,22.7
	c-6.4,14-10.9,29.6-13.5,44.7c-2.7,15.8-4.4,32-4.6,48c0,1.9,0,3.7,0,5.4c-3.5,4.6-7.4,8.7-11.7,12.4c-5.6,4.7-10.5,7.6-14.9,8.9
	c-6.8,1.9-11.4,1-13.8-2.8c8.7-5.1,18-10.2,24.3-18.3c4.8-6.2,7.2-12.6,7.2-19.3c0-5.7-1.7-9.8-5.1-12.1c-3.4-2.4-7.9-2.7-13.5-1.1
	c-6.3,1.8-11.9,5.1-16.9,9.9c-5,4.8-8.9,10.4-11.7,16.9c-2.8,6.5-4.2,13.1-4.2,19.8c0,2.1,0.1,4,0.4,5.8c-2.9,3.4-6,6.3-9.3,8.8
	c-5.6,4.2-11.1,6.9-16.5,8.2c-4.9,1.2-8.7,1.2-11.2,0c-2.5-1.2-3.8-3.1-3.8-5.8c0-4.3,2.9-9.2,8.7-14.9c6.6-6.5,14.4-12.4,21.9-17.6
	c3.1-2.1,5.4-4.3,6.8-6.4c1.5-2.1,2.2-4.7,2.2-7.8c0-2.8-0.5-4.8-1.5-5.8c-1-1.1-2.3-1.4-3.9-1c-1,0.3-2.2,0.8-3.6,1.5
	c-1.4,0.8-2.4,1.2-2.8,1.5c-2.7,1.5-4.6,2.3-5.5,2.6c-2.8,0.7-6.3,1.4-10.4,2.1c-4.1,0.7-7,1.2-8.5,1.4c-7.3,1.1-13.4,2-17.9,2.9
	c-1.9,0.4-3.5,1.6-4.6,3.6c-1.1,2-1.7,4.2-1.7,6.5c0,2.2,0.6,4,1.7,5.4c1.1,1.4,2.7,1.8,4.9,1.3c9.5-2.2,14.3-3.4,23.8-5.9
	c-7.8,5.3-15.9,12-22.1,19.2c-5.1,6-7.7,12.2-7.7,18.6c0,4.3,1.3,7.9,3.9,10.8c2.6,2.9,6.3,4.9,11.1,5.8c4.8,0.9,10.6,0.6,17.1-1
	c8.4-2,16-5.7,22.7-10.8c4.2-3.2,8-6.8,11.3-10.8c0.8,0.9,1.7,1.7,2.7,2.4c5.6,4,13.5,4.6,23.7,1.7c7.5-2.1,14.5-6,21-11.6
	c3.1-2.6,5.8-5.2,8.2-7.8c0.5,3.2,1.4,5.5,2.5,6.9c1.4,1.8,3.6,2.2,6.6,1.3c3-0.9,5.2-2.3,6.6-4.3c1.4-2,2.6-5.5,3.7-10.3
	c1.5-6.7,3.7-13.5,6.4-20.2c2.7-6.7,5.6-12.5,8.8-17.1c3.1-4.7,6-7.4,8.6-8.1c1.1-0.3,2-0.1,2.7,0.5c0.7,0.7,1.1,1.9,1.1,3.6
	c0,3-0.9,5.8-2.8,8.4c-1.8,2.6-4.9,5.5-9.2,8.5c-3.9,2.8-5.8,6-5.8,9.8c0,7.1,2.3,12.1,6.8,15c4.6,3,10.6,3.4,18,1.3
	c6.1-1.7,11.4-4.8,15.8-9.2c2.6-2.6,5.2-5.5,7.7-8.7c0.8,0.9,1.7,1.7,2.7,2.4c5.6,4.1,13.5,4.8,23.7,2.3c7.5-1.8,14.5-5.2,21-10.3
	c4.8-3.8,8.9-7.5,12.1-11.2c0.4,0.8,0.8,1.6,1.3,2.4c4.1,6.9,10.4,9.6,19,8.2c6.2-1,11.7-3.5,16.6-7.5c2.3-1.8,4.4-3.8,6.5-6
	c0.6,1.4,1.3,2.7,2.2,3.8c2.8,3.7,6.3,5.3,10.7,4.9c3.9-0.4,7.6-2.5,11-6.4c3.5-3.9,6.2-9.4,8.1-16.4c-0.9,6.7-1.6,11.9-2.3,15.5
	c-0.2,1.3-0.3,2-0.4,3.4c-8.4,7.3-16.9,14.7-24.1,23.3c-5.7,6.8-9.5,12.8-11.6,17.8c-2.1,5-3.1,9.8-3.1,14.4c0,4.9,1.5,8.7,4.7,11.4
	c3.1,2.6,7.2,3.7,12.1,3.1c12.5-1.5,20.7-13.1,25.1-23.9c7.6-18.7,11.7-39.6,14.8-59.7c0.4-2.5,1.6-10.7,3.9-24.3
	c2.4-14.2,3.8-22.5,3.8-24.9C461.3,83.4,460.9,82.5,460,81.9z M249.2,93.9c2-9,4-16.4,6.2-22c2.1-5.6,4.1-8.7,5.8-9.2
	c1.3-0.4,2.2,0.2,2.9,1.6c0.7,1.5,1,3.7,1,6.8c0,6.8-2,14.9-5.9,24.4c-3.8,9.4-9.1,19.1-14.9,27.4
	C245.4,113.3,247.1,103.4,249.2,93.9z M182,175.7c0-5.9,1.2-11.3,3.7-16.1c2.5-4.9,5.5-7.8,9.1-8.8c1.7-0.5,3.1-0.3,4.1,0.5
	c1,0.8,1.5,2.2,1.5,4c0,3.6-1.6,7.2-4.9,10.9c-3.3,3.7-7.8,7-13.5,9.9C182,175.9,182,175.8,182,175.7z M315.4,138
	c0-5.9,1.2-11.3,3.7-16c2.5-4.8,5.5-7.6,9.1-8.5c1.7-0.4,3.1-0.2,4.1,0.7c1,0.9,1.5,2.2,1.5,4.1c0,3.6-1.6,7.1-4.9,10.6
	c-3.3,3.5-7.8,6.6-13.5,9.4C315.4,138.2,315.4,138.1,315.4,138z M379.3,76.1c1.8-10.3,4-21,7.4-31.2c2.8-8.5,5.3-12.9,7.6-13.2
	c2.7-0.4,4,3.1,4.1,10.5c0,11-2.9,21.8-6.1,32.1c-4,12.5-9.9,25-16.4,36.8C376.4,99.1,377.4,87.5,379.3,76.1z M423.4,194.1
	c-2.9,5.9-5.7,9-8.1,9.2c-1.5,0.2-2.5-0.3-3.1-1.3c-0.6-1-0.9-2.3-0.9-4c0-3.9,1.7-8.6,5-14.1c3.3-5.5,8.7-11.8,16.2-18.6
	C430,175,427.8,185.2,423.4,194.1z"/>
<ellipse transform="matrix(0.7071 -0.7071 0.7071 0.7071 120.0523 325.8503)" cx="453.4" cy="18" rx="8.6" ry="8.6"/>
<path d="M160.4,263.7H46.6c-4.8,0-8.6,3.9-8.6,8.6s3.9,8.6,8.6,8.6h113.8c4.8,0,8.6-3.9,8.6-8.6S165.1,263.7,160.4,263.7z"/>
<ellipse transform="matrix(0.7071 -0.7071 0.7071 0.7071 -188.7188 88.4111)" cx="12.4" cy="272" rx="8.6" ry="8.6"/>
<path d="M48.6,26.6h322.1c4.2-6.2,9.2-12.4,14.5-17.2H48.6c-4.8,0-8.6,3.9-8.6,8.6S43.8,26.6,48.6,26.6z"/>
<path d="M195.9,276c-5.5,0-9.1-4.6-9.1-12c0-7.4,3.8-11.9,9.2-11.9c2.6,0,4.5,1.2,6.2,2.8l2.9-3.5c-2-2.1-5.2-4.1-9.2-4.1
	c-8.2,0-14.7,6.3-14.7,16.8c0,10.7,6.4,16.7,14.5,16.7c4.2,0,7.5-1.7,10.1-4.7l-2.9-3.4C201,274.7,198.8,276,195.9,276z"/>
<path d="M222.2,247.3c-8.4,0-14.2,6.2-14.2,16.6c0,10.4,5.8,16.9,14.2,16.9c8.4,0,14.2-6.4,14.2-16.9
	C236.4,253.5,230.6,247.3,222.2,247.3z M222.2,276c-5.2,0-8.5-4.7-8.5-12.1c0-7.4,3.4-11.8,8.5-11.8s8.5,4.5,8.5,11.8
	C230.8,271.3,227.4,276,222.2,276z"/>
<path d="M248.9,247.9l-10.6,32.3h5.6l2.6-8.9h11l2.6,8.9h5.8l-10.6-32.3H248.9z M247.8,266.9l1.2-4.1c1-3.4,2-7.1,2.9-10.7h0.2
	c1,3.6,1.9,7.2,3,10.7l1.2,4.1H247.8z"/>
<path d="M282.5,276c-5.5,0-9.1-4.6-9.1-12c0-7.4,3.8-11.9,9.2-11.9c2.6,0,4.5,1.2,6.2,2.8l2.9-3.5c-2-2.1-5.2-4.1-9.2-4.1
	c-8.2,0-14.7,6.3-14.7,16.8c0,10.7,6.4,16.7,14.5,16.7c4.2,0,7.5-1.7,10.1-4.7l-2.9-3.4C287.6,274.7,285.4,276,282.5,276z"/>
<polygon points="316.8,260.9 303.4,260.9 303.4,247.9 297.9,247.9 297.9,280.2 303.4,280.2 303.4,265.7 316.8,265.7 316.8,280.2 
	322.3,280.2 322.3,247.9 316.8,247.9 "/>
<rect x="330.6" y="247.9" width="5.5" height="32.3"/>
<path d="M363.2,262.3c0,3.6,0.4,7.6,0.7,10.9h-0.2l-3.4-6.9L350,247.9h-5.7v32.3h5.2v-14.6c0-3.6-0.4-7.4-0.7-10.8h0.2l3.4,6.8
	l10.3,18.5h5.7v-32.3h-5.2V262.3z"/>
<path d="M389.2,267.3h6.2v7.2c-1.1,1-2.9,1.5-4.8,1.5c-6.5,0-10-4.6-10-12c0-7.4,3.9-11.9,9.7-11.9c3,0,5,1.2,6.6,2.8l2.9-3.5
	c-2-2.1-5.1-4.1-9.7-4.1c-8.6,0-15.2,6.3-15.2,16.8c0,10.7,6.4,16.7,15.1,16.7c4.4,0,8.1-1.6,10.3-3.8v-14.2h-11.1V267.3z"/>
<path d="M422,262.5l-4.4-1.9c-2.7-1.1-5.2-2.1-5.2-4.7c0-2.4,2.1-3.9,5.2-3.9c2.8,0,5,1,7.1,2.8l2.8-3.5c-2.5-2.5-6.1-4.1-9.9-4.1
	c-6.2,0-10.8,3.9-10.8,9c0,4.7,3.4,7.2,6.5,8.5l4.5,1.9c3,1.3,5.1,2.1,5.1,4.9c0,2.6-2.1,4.3-5.8,4.3c-3.1,0-6.2-1.5-8.5-3.7
	l-3.2,3.8c3,3,7.2,4.7,11.6,4.7c7.2,0,11.5-4.3,11.5-9.5C428.5,266.5,425.8,264.1,422,262.5z"/>
</svg>
